<svg xmlns="http://www.w3.org/2000/svg" xmlns:xlink="http://www.w3.org/1999/xlink" width="500" zoomAndPan="magnify" viewBox="0 0 375 374.999991" height="500" preserveAspectRatio="xMidYMid meet" version="1.0"><defs><g/><clipPath id="3ca7acd076"><path d="M 5.207031 13.429688 L 369.707031 13.429688 L 369.707031 363 L 5.207031 363 Z M 5.207031 13.429688 " clip-rule="nonzero"/></clipPath></defs><g clip-path="url(#3ca7acd076)"><path fill="#e83d73" d="M 107.824219 13.429688 C 107.34375 13.429688 106.871094 13.476562 106.402344 13.570312 C 105.933594 13.664062 105.480469 13.800781 105.039062 13.984375 C 104.597656 14.164062 104.179688 14.390625 103.78125 14.65625 C 103.382812 14.921875 103.015625 15.222656 102.679688 15.558594 C 102.339844 15.898438 102.039062 16.265625 101.773438 16.664062 C 101.507812 17.058594 101.285156 17.480469 101.101562 17.921875 C 100.917969 18.363281 100.78125 18.816406 100.6875 19.285156 C 100.59375 19.753906 100.546875 20.226562 100.546875 20.707031 L 100.546875 158.957031 L 13.230469 158.957031 C 12.929688 158.957031 12.632812 158.972656 12.335938 159.011719 C 12.039062 159.046875 11.746094 159.101562 11.457031 159.175781 C 11.167969 159.246094 10.882812 159.339844 10.601562 159.445312 C 10.324219 159.554688 10.050781 159.679688 9.789062 159.820312 C 9.527344 159.960938 9.273438 160.117188 9.027344 160.289062 C 8.78125 160.464844 8.550781 160.648438 8.328125 160.851562 C 8.109375 161.054688 7.898438 161.265625 7.707031 161.492188 C 7.511719 161.722656 7.332031 161.960938 7.164062 162.207031 C 7 162.457031 6.851562 162.714844 6.714844 162.984375 C 6.582031 163.25 6.464844 163.527344 6.367188 163.808594 C 6.265625 164.089844 6.183594 164.375 6.121094 164.667969 C 6.054688 164.960938 6.011719 165.253906 5.984375 165.554688 C 5.953125 165.851562 5.945312 166.148438 5.953125 166.449219 C 5.960938 166.746094 5.988281 167.042969 6.035156 167.339844 C 6.082031 167.636719 6.144531 167.925781 6.226562 168.214844 C 6.308594 168.503906 6.40625 168.785156 6.523438 169.058594 L 7.871094 172.273438 C 8.351562 173.398438 9.066406 174.347656 10.019531 175.113281 C 10.976562 175.878906 12.054688 176.371094 13.257812 176.59375 L 13.839844 176.707031 L 15.136719 177.984375 L 17.054688 182.730469 C 17.417969 183.644531 17.949219 184.449219 18.640625 185.148438 C 19.335938 185.84375 20.136719 186.382812 21.046875 186.753906 L 25.296875 188.488281 L 26.21875 190.449219 C 26.589844 191.226562 27.082031 191.917969 27.699219 192.523438 L 38.386719 203.070312 L 40.234375 205.113281 C 41.066406 206.035156 42.070312 206.699219 43.246094 207.105469 L 48.121094 208.808594 L 48.558594 209.519531 C 49.214844 210.578125 50.082031 211.410156 51.160156 212.023438 L 50.835938 211.867188 L 51.003906 212.535156 C 51.164062 213.179688 51.40625 213.789062 51.730469 214.367188 L 56.886719 223.605469 L 56.886719 231.71875 C 56.886719 232.609375 57.046875 233.472656 57.363281 234.304688 C 57.675781 235.136719 58.132812 235.886719 58.722656 236.550781 L 73.515625 253.179688 C 74.371094 254.140625 75.410156 254.828125 76.628906 255.238281 L 82.101562 257.074219 L 83.519531 258.890625 C 83.882812 259.355469 84.296875 259.765625 84.757812 260.128906 L 90.585938 264.71875 C 91.5 265.4375 92.527344 265.914062 93.667969 266.140625 L 102.761719 267.957031 C 103.464844 268.097656 104.171875 268.132812 104.886719 268.066406 C 105.597656 267.996094 106.285156 267.828125 106.949219 267.554688 C 107.609375 267.28125 108.21875 266.921875 108.773438 266.46875 C 109.332031 266.019531 109.808594 265.496094 110.210938 264.902344 L 118.722656 252.328125 L 124.5625 246.273438 L 146.875 246.273438 L 153.882812 252.597656 C 154.285156 252.953125 154.71875 253.261719 155.191406 253.519531 L 167.796875 260.613281 L 169.230469 263.480469 L 173.296875 277.523438 L 173.308594 281.757812 C 173.3125 282.457031 173.410156 283.144531 173.609375 283.816406 C 173.808594 284.484375 174.101562 285.113281 174.480469 285.703125 C 174.859375 286.289062 175.316406 286.8125 175.847656 287.265625 C 176.378906 287.722656 176.964844 288.09375 177.601562 288.382812 L 184.777344 291.621094 L 194.527344 305.152344 C 195.449219 306.429688 196.65625 307.316406 198.152344 307.808594 L 200.554688 308.605469 L 202.414062 311.304688 L 202.414062 321.765625 C 202.414062 322.800781 202.628906 323.792969 203.050781 324.738281 C 203.472656 325.683594 204.074219 326.503906 204.84375 327.191406 L 207.546875 329.609375 L 209.421875 336.644531 C 209.609375 337.34375 209.890625 338.003906 210.273438 338.617188 L 213.613281 343.992188 C 214.359375 345.183594 215.363281 346.082031 216.628906 346.691406 L 225.621094 351.054688 C 226.402344 351.433594 227.21875 351.664062 228.082031 351.75 L 235.855469 352.519531 L 238.414062 354.210938 C 239.632812 355.015625 240.972656 355.417969 242.433594 355.417969 L 247.167969 355.417969 L 256.320312 357.265625 L 263.640625 361.65625 C 264.316406 362.0625 265.039062 362.347656 265.808594 362.515625 C 266.582031 362.6875 267.359375 362.730469 268.140625 362.648438 C 268.925781 362.5625 269.675781 362.359375 270.394531 362.03125 C 271.113281 361.703125 271.757812 361.269531 272.335938 360.730469 L 280.140625 353.457031 C 280.519531 353.101562 280.859375 352.707031 281.15625 352.277344 C 281.453125 351.847656 281.703125 351.394531 281.902344 350.910156 C 282.101562 350.425781 282.246094 349.929688 282.339844 349.414062 C 282.429688 348.902344 282.464844 348.382812 282.445312 347.863281 C 282.425781 347.339844 282.351562 346.828125 282.222656 346.320312 C 282.09375 345.816406 281.910156 345.328125 281.675781 344.863281 C 281.441406 344.394531 281.160156 343.960938 280.832031 343.554688 C 280.5 343.148438 280.132812 342.78125 279.726562 342.457031 L 276.742188 340.082031 L 274.894531 335.136719 C 274.761719 334.773438 274.601562 334.421875 274.410156 334.085938 L 268.570312 323.8125 L 267.902344 322.175781 L 267.902344 321.378906 L 271.425781 316.476562 C 271.765625 316.003906 272.046875 315.496094 272.265625 314.957031 L 278.050781 300.6875 C 278.394531 299.828125 278.570312 298.9375 278.574219 298.011719 C 278.578125 297.085938 278.414062 296.191406 278.078125 295.332031 C 278.132812 295.25 278.183594 295.171875 278.234375 295.089844 L 281.714844 289.363281 L 283.621094 288.863281 C 284.566406 288.617188 285.429688 288.195312 286.207031 287.597656 L 296.15625 279.996094 L 312.199219 270.773438 C 312.394531 270.664062 312.585938 270.542969 312.769531 270.417969 L 320.058594 265.273438 C 320.378906 265.050781 320.675781 264.804688 320.953125 264.535156 L 333.757812 252.011719 L 339.882812 246.882812 C 340.792969 246.125 341.472656 245.203125 341.929688 244.113281 L 342.15625 243.585938 L 352.859375 237.746094 L 364.640625 234.121094 C 365.382812 233.890625 366.070312 233.550781 366.707031 233.101562 C 367.339844 232.652344 367.886719 232.113281 368.347656 231.488281 C 368.808594 230.863281 369.164062 230.183594 369.40625 229.445312 C 369.648438 228.707031 369.769531 227.949219 369.769531 227.171875 L 369.769531 208.070312 C 369.773438 206.925781 369.515625 205.839844 369.003906 204.8125 C 368.492188 203.789062 367.773438 202.933594 366.859375 202.246094 L 365.921875 201.535156 L 367.9375 199.261719 C 368.527344 198.59375 368.980469 197.84375 369.296875 197.011719 C 369.613281 196.179688 369.773438 195.320312 369.769531 194.429688 L 369.769531 180.785156 C 369.769531 179.988281 369.644531 179.210938 369.386719 178.453125 L 367.726562 173.550781 C 367.410156 172.609375 366.921875 171.765625 366.261719 171.023438 L 360.789062 164.910156 L 359.453125 159.539062 C 359.238281 158.664062 358.875 157.859375 358.359375 157.121094 L 355.261719 152.675781 L 353.34375 143.367188 L 349.734375 100.132812 C 349.695312 99.683594 349.617188 99.242188 349.496094 98.804688 C 349.375 98.371094 349.214844 97.949219 349.015625 97.542969 C 348.816406 97.136719 348.582031 96.753906 348.3125 96.390625 C 348.042969 96.027344 347.738281 95.695312 347.40625 95.390625 C 347.074219 95.082031 346.714844 94.8125 346.332031 94.570312 C 345.949219 94.332031 345.546875 94.128906 345.125 93.964844 C 344.707031 93.800781 344.273438 93.679688 343.828125 93.59375 C 343.386719 93.511719 342.9375 93.46875 342.484375 93.46875 L 337.765625 93.46875 L 330.660156 87.785156 C 329.332031 86.722656 327.816406 86.191406 326.113281 86.191406 L 296.097656 86.191406 C 294.953125 86.191406 293.867188 86.449219 292.839844 86.960938 C 291.816406 87.472656 290.960938 88.1875 290.273438 89.105469 L 285.554688 95.386719 C 284.882812 94.769531 284.125 94.296875 283.273438 93.964844 C 282.425781 93.636719 281.546875 93.46875 280.636719 93.46875 L 268.8125 93.46875 C 267.046875 93.46875 265.488281 94.039062 264.136719 95.175781 L 260.144531 98.515625 L 260.128906 98.5 L 259.929688 98.046875 C 259.511719 97.082031 258.917969 96.25 258.140625 95.546875 C 257.367188 94.84375 256.480469 94.328125 255.480469 94.007812 L 249.214844 92.003906 C 248.136719 91.65625 247.039062 91.566406 245.921875 91.730469 C 244.800781 91.898438 243.777344 92.300781 242.847656 92.941406 L 240.871094 90.554688 C 239.953125 89.453125 238.804688 88.691406 237.433594 88.265625 L 231.875 86.519531 C 231.265625 86.328125 230.636719 86.222656 229.996094 86.195312 C 229.355469 86.171875 228.722656 86.230469 228.097656 86.371094 C 227.472656 86.515625 226.878906 86.734375 226.308594 87.035156 C 225.742188 87.335938 225.226562 87.703125 224.757812 88.140625 L 216.824219 86.5625 C 216.6875 85.886719 216.460938 85.246094 216.144531 84.636719 C 215.824219 84.027344 215.425781 83.476562 214.953125 82.976562 C 214.476562 82.480469 213.941406 82.058594 213.347656 81.714844 C 212.753906 81.371094 212.121094 81.113281 211.453125 80.949219 L 204.175781 79.128906 C 203.597656 78.984375 203.011719 78.914062 202.414062 78.917969 L 196.859375 78.917969 L 195.140625 78.0625 L 195.140625 20.707031 C 195.140625 20.226562 195.09375 19.753906 195 19.285156 C 194.90625 18.816406 194.769531 18.363281 194.585938 17.921875 C 194.402344 17.480469 194.179688 17.058594 193.914062 16.664062 C 193.648438 16.265625 193.34375 15.898438 193.007812 15.558594 C 192.667969 15.222656 192.300781 14.921875 191.90625 14.65625 C 191.507812 14.390625 191.089844 14.164062 190.648438 13.984375 C 190.207031 13.800781 189.75 13.664062 189.28125 13.570312 C 188.8125 13.476562 188.339844 13.429688 187.863281 13.429688 Z M 115.097656 27.980469 L 180.585938 27.980469 L 180.585938 82.554688 C 180.585938 83.230469 180.679688 83.894531 180.863281 84.542969 C 181.046875 85.191406 181.316406 85.804688 181.671875 86.378906 C 182.027344 86.953125 182.453125 87.46875 182.953125 87.925781 C 183.453125 88.382812 184.003906 88.761719 184.609375 89.0625 L 191.882812 92.703125 C 192.910156 93.214844 193.992188 93.46875 195.140625 93.46875 L 201.519531 93.46875 L 202.414062 93.695312 L 202.414062 93.46875 C 202.414062 93.945312 202.460938 94.417969 202.554688 94.886719 C 202.648438 95.355469 202.785156 95.8125 202.96875 96.253906 C 203.152344 96.695312 203.375 97.113281 203.640625 97.511719 C 203.90625 97.910156 204.207031 98.277344 204.546875 98.613281 C 204.882812 98.953125 205.253906 99.253906 205.648438 99.519531 C 206.046875 99.785156 206.464844 100.007812 206.90625 100.191406 C 207.347656 100.375 207.804688 100.511719 208.273438 100.605469 C 208.742188 100.699219 209.214844 100.746094 209.691406 100.746094 L 213.515625 100.746094 L 220.761719 102.195312 L 223.363281 103.84375 C 224.046875 104.277344 224.785156 104.589844 225.570312 104.78125 C 226.359375 104.96875 227.15625 105.027344 227.964844 104.949219 C 228.773438 104.871094 229.546875 104.664062 230.285156 104.328125 C 231.019531 103.996094 231.683594 103.546875 232.273438 102.992188 L 232.96875 103.828125 L 234.078125 106.1875 C 234.550781 107.195312 235.222656 108.050781 236.085938 108.75 C 236.953125 109.453125 237.925781 109.929688 239.011719 110.179688 L 242.320312 110.949219 C 242.921875 111.085938 243.53125 111.148438 244.148438 111.132812 C 244.765625 111.117188 245.371094 111.023438 245.960938 110.851562 C 246.554688 110.679688 247.117188 110.441406 247.648438 110.125 C 248.179688 109.8125 248.664062 109.4375 249.101562 109.003906 C 250.027344 110.167969 251.203125 110.972656 252.625 111.417969 L 259.617188 113.59375 C 260.199219 113.773438 260.792969 113.878906 261.402344 113.910156 C 262.011719 113.941406 262.613281 113.894531 263.210938 113.773438 C 263.808594 113.65625 264.382812 113.460938 264.929688 113.199219 C 265.480469 112.933594 265.988281 112.605469 266.453125 112.214844 L 271.457031 108.019531 L 276.601562 108.019531 L 279.015625 111.871094 C 279.171875 112.121094 279.34375 112.363281 279.527344 112.589844 C 279.710938 112.820312 279.910156 113.039062 280.121094 113.242188 C 280.332031 113.449219 280.554688 113.640625 280.792969 113.816406 C 281.027344 113.996094 281.269531 114.15625 281.523438 114.304688 C 281.777344 114.453125 282.042969 114.585938 282.3125 114.703125 C 282.582031 114.820312 282.859375 114.917969 283.140625 115 C 283.425781 115.085938 283.710938 115.148438 284 115.199219 C 284.292969 115.246094 284.585938 115.277344 284.878906 115.289062 C 285.171875 115.300781 285.464844 115.296875 285.761719 115.273438 C 286.054688 115.25 286.34375 115.210938 286.632812 115.152344 C 286.921875 115.09375 287.207031 115.015625 287.484375 114.921875 C 287.765625 114.832031 288.039062 114.722656 288.304688 114.59375 C 288.570312 114.46875 288.828125 114.328125 289.078125 114.171875 C 289.324219 114.011719 289.5625 113.839844 289.792969 113.65625 C 290.019531 113.46875 290.234375 113.269531 290.441406 113.054688 C 290.644531 112.84375 290.832031 112.621094 291.011719 112.382812 L 299.738281 100.746094 L 323.554688 100.746094 L 330.660156 106.429688 C 331.992188 107.492188 333.507812 108.023438 335.207031 108.019531 L 335.792969 108.019531 L 338.875 145.015625 C 338.902344 145.300781 338.945312 145.585938 339.003906 145.867188 L 341.304688 157.078125 C 341.507812 158.058594 341.898438 158.960938 342.472656 159.78125 L 345.652344 164.34375 L 347.089844 170.15625 C 347.382812 171.324219 347.933594 172.355469 348.738281 173.253906 L 354.421875 179.621094 L 355.21875 181.980469 L 355.21875 191.65625 L 349.777344 197.78125 C 349.441406 198.160156 349.148438 198.566406 348.898438 199.003906 C 348.648438 199.4375 348.445312 199.898438 348.292969 200.375 C 348.136719 200.855469 348.03125 201.34375 347.980469 201.847656 C 347.925781 202.347656 347.925781 202.847656 347.976562 203.347656 C 348.027344 203.847656 348.128906 204.339844 348.28125 204.820312 C 348.433594 205.300781 348.632812 205.757812 348.882812 206.195312 C 349.128906 206.636719 349.417969 207.042969 349.753906 207.421875 C 350.085938 207.800781 350.453125 208.140625 350.855469 208.441406 L 355.21875 211.710938 L 355.21875 221.800781 L 347.871094 224.058594 C 347.40625 224.203125 346.960938 224.394531 346.535156 224.628906 L 332.933594 232.046875 C 331.441406 232.863281 330.363281 234.054688 329.707031 235.628906 L 329.195312 236.863281 L 324.207031 241.027344 C 324.066406 241.144531 323.929688 241.269531 323.796875 241.398438 L 311.191406 253.71875 L 304.652344 258.324219 L 288.496094 267.617188 C 288.21875 267.777344 287.953125 267.949219 287.699219 268.144531 L 278.53125 275.148438 L 275.179688 276.03125 C 274.265625 276.269531 273.429688 276.671875 272.671875 277.238281 C 271.914062 277.804688 271.292969 278.492188 270.800781 279.300781 L 267.035156 285.496094 L 266.339844 285.78125 C 265.445312 286.144531 264.660156 286.667969 263.972656 287.347656 C 263.289062 288.027344 262.761719 288.8125 262.386719 289.703125 L 261.195312 292.585938 C 260.890625 293.320312 260.710938 294.082031 260.652344 294.875 C 260.597656 295.667969 260.671875 296.449219 260.871094 297.21875 C 261.070312 297.984375 261.390625 298.703125 261.824219 299.367188 C 262.257812 300.03125 262.789062 300.609375 263.410156 301.101562 L 262.460938 300.402344 L 259.105469 308.6875 L 254.714844 314.785156 C 253.804688 316.054688 253.347656 317.472656 253.351562 319.035156 L 253.351562 323.582031 C 253.347656 324.527344 253.523438 325.4375 253.875 326.3125 L 255.253906 329.707031 C 255.375 330.011719 255.519531 330.304688 255.679688 330.589844 L 261.464844 340.765625 L 262.730469 344.148438 C 262.011719 343.714844 261.246094 343.417969 260.425781 343.253906 L 249.328125 341.007812 C 248.855469 340.910156 248.375 340.863281 247.890625 340.863281 L 244.625 340.863281 L 242.378906 339.386719 C 241.375 338.722656 240.277344 338.328125 239.082031 338.207031 L 230.796875 337.382812 L 224.871094 334.511719 L 223.207031 331.855469 L 221.046875 323.753906 C 220.675781 322.34375 219.945312 321.15625 218.859375 320.1875 L 216.96875 318.496094 L 216.96875 309.03125 C 216.96875 307.515625 216.535156 306.140625 215.675781 304.894531 L 211.140625 298.328125 C 210.21875 296.984375 208.980469 296.054688 207.433594 295.542969 L 204.960938 294.734375 L 195.453125 281.53125 C 194.695312 280.476562 193.722656 279.679688 192.539062 279.144531 L 187.847656 277.039062 L 187.847656 276.457031 C 187.847656 275.777344 187.753906 275.109375 187.5625 274.453125 L 183.03125 258.808594 C 182.90625 258.378906 182.746094 257.96875 182.546875 257.570312 L 179.820312 252.113281 C 179.152344 250.785156 178.171875 249.757812 176.878906 249.027344 L 163.019531 241.242188 L 154.535156 233.582031 C 153.867188 232.980469 153.113281 232.519531 152.273438 232.199219 C 151.429688 231.878906 150.5625 231.71875 149.660156 231.71875 L 121.464844 231.71875 C 120.476562 231.71875 119.527344 231.914062 118.617188 232.300781 C 117.707031 232.6875 116.90625 233.238281 116.222656 233.949219 L 107.808594 242.675781 C 107.519531 242.976562 107.261719 243.296875 107.027344 243.644531 L 100.875 252.738281 L 98.230469 252.210938 L 94.449219 249.242188 L 92.234375 246.398438 C 91.335938 245.246094 90.195312 244.4375 88.808594 243.96875 L 83.09375 242.050781 L 71.441406 228.949219 L 71.441406 221.714844 C 71.441406 220.449219 71.132812 219.265625 70.515625 218.160156 L 64.917969 208.140625 L 64.207031 205.230469 C 63.960938 204.203125 63.511719 203.273438 62.863281 202.445312 C 62.214844 201.613281 61.421875 200.953125 60.484375 200.46875 L 59.871094 200.15625 L 59.132812 198.949219 C 58.226562 197.484375 56.964844 196.472656 55.339844 195.90625 L 49.78125 193.972656 L 49.042969 193.164062 C 48.953125 193.054688 48.855469 192.953125 48.757812 192.851562 L 38.839844 183.074219 L 37.25 179.71875 C 36.859375 178.894531 36.335938 178.167969 35.679688 177.542969 C 35.019531 176.914062 34.265625 176.425781 33.425781 176.082031 L 29.402344 174.445312 L 29.019531 173.507812 L 107.824219 173.507812 C 108.300781 173.507812 108.773438 173.460938 109.242188 173.367188 C 109.710938 173.277344 110.164062 173.136719 110.605469 172.953125 C 111.046875 172.773438 111.46875 172.546875 111.867188 172.28125 C 112.261719 172.015625 112.628906 171.714844 112.96875 171.378906 C 113.304688 171.039062 113.605469 170.671875 113.871094 170.273438 C 114.136719 169.878906 114.363281 169.457031 114.546875 169.015625 C 114.726562 168.574219 114.867188 168.121094 114.960938 167.652344 C 115.050781 167.183594 115.097656 166.710938 115.097656 166.230469 Z M 233.4375 101.554688 L 233.113281 102.152344 L 233.042969 102.136719 C 233.183594 101.949219 233.316406 101.753906 233.4375 101.554688 Z M 18.757812 162.820312 L 19.769531 162.992188 L 19.808594 163.105469 C 19.46875 162.984375 19.117188 162.890625 18.757812 162.820312 Z M 275.734375 292.191406 L 276.785156 292.984375 L 276.726562 293.113281 C 276.425781 292.773438 276.09375 292.464844 275.734375 292.191406 Z M 275.734375 292.191406 " fill-opacity="1" fill-rule="nonzero"/></g><g fill="#ffffff" fill-opacity="1"><g transform="translate(5.207869, 150.833685)"><g><path d="M 43.597656 0 L 6 0 L 6 -133.996094 L 43.597656 -133.996094 Z M 120.996094 0 L 16.398438 0 L 16.398438 -33.800781 L 120.996094 -33.800781 Z M 120.996094 0 "/></g></g></g><g fill="#ffffff" fill-opacity="1"><g transform="translate(116.099997, 251.249984)"><g><path d="M 95.796875 0 L 6 0 L 6 -133.996094 L 91.199219 -133.996094 C 100.929688 -133.996094 108.996094 -132.761719 115.398438 -130.296875 C 121.796875 -127.832031 126.597656 -124.195312 129.796875 -119.398438 C 132.996094 -114.597656 134.597656 -108.664062 134.597656 -101.597656 C 134.597656 -93.0625 132.097656 -85.996094 127.097656 -80.398438 C 122.097656 -74.796875 113.464844 -71.730469 101.199219 -71.199219 L 101.199219 -69.199219 C 114.664062 -68.664062 124.628906 -65.53125 131.097656 -59.796875 C 137.5625 -54.066406 140.796875 -46.53125 140.796875 -37.199219 C 140.796875 -29.734375 139.261719 -23.199219 136.195312 -17.597656 C 133.128906 -12 128.296875 -7.667969 121.695312 -4.601562 C 115.097656 -1.535156 106.464844 0 95.796875 0 Z M 43.398438 -52.398438 L 43.398438 -33.800781 L 90.996094 -33.800781 C 95.53125 -33.800781 98.632812 -34.433594 100.296875 -35.699219 C 101.964844 -36.964844 102.796875 -39.464844 102.796875 -43.199219 C 102.796875 -46.933594 101.996094 -49.398438 100.398438 -50.597656 C 98.796875 -51.796875 95.664062 -52.398438 90.996094 -52.398438 Z M 43.398438 -100.199219 L 43.398438 -83.199219 L 87.199219 -83.199219 C 91.0625 -83.199219 93.664062 -83.832031 94.996094 -85.097656 C 96.332031 -86.363281 96.996094 -88.53125 96.996094 -91.597656 C 96.996094 -94.664062 96.164062 -96.863281 94.496094 -98.199219 C 92.832031 -99.53125 90.0625 -100.199219 86.199219 -100.199219 Z M 43.398438 -100.199219 "/></g></g></g><g fill="#ffffff" fill-opacity="1"><g transform="translate(213.024161, 345.244225)"><g><path d="M 147.195312 0 L 102.199219 0 L 71 -47.597656 L 32.597656 -47.597656 L 32.597656 -84.199219 L 70.597656 -84.199219 L 103.199219 -133.996094 L 148.195312 -133.996094 L 101.796875 -68.199219 Z M 43.597656 0 L 6 0 L 6 -133.996094 L 43.597656 -133.996094 Z M 43.597656 0 "/></g></g></g></svg>